<svg xmlns="http://www.w3.org/2000/svg" viewBox="0 0 256 256" xml:space="preserve"><path d="M249.021 66.987a31.677 31.677 0 0 0-22.359-22.36c-19.72-5.285-98.805-5.285-98.805-5.285s-79.085 0-98.805 5.286a31.677 31.677 0 0 0-22.36 22.359c-5.285 19.72-5.285 60.87-5.285 60.87s0 41.15 5.286 60.87a31.677 31.677 0 0 0 22.359 22.36c19.72 5.285 98.805 5.285 98.805 5.285s79.085 0 98.805-5.286a31.677 31.677 0 0 0 22.36-22.359c5.285-19.72 5.285-60.87 5.285-60.87s0-41.15-5.286-60.87z" fill="red"/><path fill="#fff" d="m102.567 165.792 65.698-37.935-65.698-37.935z"/></svg>
